<svg id="Layer_1" data-name="Layer 1" xmlns="http://www.w3.org/2000/svg" viewBox="0 0 60 60"><defs><style>.cls-1{fill:#fff;}</style></defs><title>401k</title><path class="cls-1" d="M42,20a1,1,0,0,1-.6-.2A19.08,19.08,0,0,0,29.07,16a1,1,0,1,1-.13-2A21.16,21.16,0,0,1,42.6,18.2,1,1,0,0,1,42,20Z"/><path class="cls-1" d="M54,30a1,1,0,0,1,0-2,4,4,0,0,0,4-4,1,1,0,0,1,2,0A5.94,5.94,0,0,1,54,30Z"/><path class="cls-1" d="M30,50C19.27,50,11.06,45.64,7.36,38H1a1,1,0,0,1-1-1V27a1,1,0,0,1,1-1H5.15a21.86,21.86,0,0,1,9.78-13.93,7.76,7.76,0,0,0-3.72-5,1,1,0,0,1,0-1.73,9.81,9.81,0,0,1,13.08,3A32.41,32.41,0,0,1,30,8c13.76,0,25,9.39,25,20.92S43.76,50,30,50ZM2,36H8a1,1,0,0,1,.91.59C12.13,43.84,19.82,48,30,48c12.66,0,23-8.56,23-19.08S42.66,10,30,10a27.26,27.26,0,0,0-6,.46A1,1,0,0,1,22.94,10a7.81,7.81,0,0,0-9.22-3.6,9.7,9.7,0,0,1,3.31,6,1,1,0,0,1-.47,1A19.76,19.76,0,0,0,7,27.14,1,1,0,0,1,6,28H2Z"/><path class="cls-1" d="M21,56a1,1,0,0,1-1-1V47.8a1,1,0,0,1,2,0V55A1,1,0,0,1,21,56Z"/><path class="cls-1" d="M39,56a1,1,0,0,1-1-1V47.54a1,1,0,0,1,2,0V55A1,1,0,0,1,39,56Z"/><path class="cls-1" d="M16,28a3,3,0,1,1,3-3A3,3,0,0,1,16,28Zm0-4a1,1,0,1,0,1,1A1,1,0,0,0,16,24Z"/></svg>