<svg id="Layer_1" data-name="Layer 1" xmlns="http://www.w3.org/2000/svg" viewBox="0 0 60 60"><defs><style>.cls-1{fill:#fff;}</style></defs><title>apple</title><path class="cls-1" d="M59,42H58V13a5,5,0,0,0-5-5H7a5,5,0,0,0-5,5V42H1a1,1,0,0,0-1,1v4a5,5,0,0,0,5,5H55a5,5,0,0,0,5-5V43A1,1,0,0,0,59,42ZM4,13a3,3,0,0,1,3-3H53a3,3,0,0,1,3,3V42H35a1,1,0,0,0-1,1v1H26V43a1,1,0,0,0-1-1H4ZM58,47a3,3,0,0,1-3,3H5a3,3,0,0,1-3-3V44H24v1a1,1,0,0,0,1,1H35a1,1,0,0,0,1-1V44H58Z"/><path class="cls-1" d="M54,12H6V40H54ZM52,38H8V14H52Z"/></svg>