<svg id="Layer_1" data-name="Layer 1" xmlns="http://www.w3.org/2000/svg" viewBox="0 0 60 60"><defs><style>.cls-1{fill:#fff;}</style></defs><title>beer</title><path class="cls-1" d="M52,48H47.55V46H52a3,3,0,0,0,3-3V33a3,3,0,0,0-3-3H45.55V28H52a5,5,0,0,1,5,5V43A5,5,0,0,1,52,48Z"/><path class="cls-1" d="M50,60H12a5,5,0,0,1,0-10H50a5,5,0,0,1,0,10ZM12,52a3,3,0,0,0,0,6H50a3,3,0,0,0,0-6Z"/><path class="cls-1" d="M12,52h-.17A1,1,0,0,1,11,50.83l3.13-18.48a1,1,0,0,1,2,.33L13,51.17A1,1,0,0,1,12,52Z"/><path class="cls-1" d="M48,52a1,1,0,0,1-1-.89L44.4,27.65a1,1,0,1,1,2-.22L49,50.89a1,1,0,0,1-.88,1.1Z"/><path class="cls-1" d="M39,46a1,1,0,0,1-1-.9L36.83,33.89a1,1,0,1,1,2-.21L40,44.9A1,1,0,0,1,39.1,46Z"/><path class="cls-1" d="M30,46a1,1,0,0,1-1-1V34a1,1,0,0,1,2,0V45A1,1,0,0,1,30,46Z"/><path class="cls-1" d="M22,46h-.07A1,1,0,0,1,21,44.93l.7-10.55a1,1,0,0,1,1.06-.93,1,1,0,0,1,.93,1.06L23,45.07A1,1,0,0,1,22,46Z"/><path class="cls-1" d="M20.17,36a7.2,7.2,0,0,1-5.62-2.8,7.82,7.82,0,0,1-1.7-5.15,11.68,11.68,0,0,1-8-2.86A11,11,0,0,1,1,17C1,10.73,6.16,6,13,6a8.93,8.93,0,0,1,4.62,1.59A15.35,15.35,0,0,1,31,0c5.35,0,9.61,2.62,12.39,7.59A8.9,8.9,0,0,1,48,6c6.58,0,11,4.42,11,11,0,6.84-4.73,12-11,12-2.91,0-6-1.7-8-3.58a14,14,0,0,1-13,3.85,7.51,7.51,0,0,1-1.94,4.61A6.59,6.59,0,0,1,20.17,36ZM14,26a1,1,0,0,1,1,1.22A5.7,5.7,0,0,0,16.12,32a5.21,5.21,0,0,0,4.06,2,4.61,4.61,0,0,0,3.43-1.51A5.77,5.77,0,0,0,25,28.08a1,1,0,0,1,1.27-1,12.14,12.14,0,0,0,13-3.71A1,1,0,0,1,40,23h0a1,1,0,0,1,.74.32C42.36,25.09,45.33,27,48,27c5.21,0,9-4.21,9-10,0-5.47-3.53-9-9-9a8,8,0,0,0-4.07,1.6l-.41.25a1,1,0,0,1-1.42-.41C39.67,4.5,35.94,2,31,2A13.35,13.35,0,0,0,18.9,9.44a1,1,0,0,1-1.42.41l-.4-.25A8,8,0,0,0,13,8C7.21,8,3,11.79,3,17a9,9,0,0,0,3.12,6.73A9.77,9.77,0,0,0,13.87,26Z"/></svg>