<svg id="Layer_1" data-name="Layer 1" xmlns="http://www.w3.org/2000/svg" viewBox="0 0 60 60"><title>betterment</title><path d="M44,33H31a1,1,0,0,1,0-2H43.7l14.75-9.83a1,1,0,1,1,1.11,1.66l-15,10A1,1,0,0,1,44,33Z"/><path d="M44,39H31a1,1,0,0,1,0-2H43.7l14.75-9.83a1,1,0,1,1,1.11,1.66l-15,10A1,1,0,0,1,44,39Z"/><path d="M44,44H31a1,1,0,0,1,0-2H43.7l14.75-9.83a1,1,0,1,1,1.11,1.66l-15,10A1,1,0,0,1,44,44Z"/><path d="M31,46H13a1,1,0,0,1-1-1V25a1,1,0,0,1,.45-.83l15-10A1,1,0,0,1,28,14H46a1,1,0,0,1,.55,1.83L32,25.54V45A1,1,0,0,1,31,46ZM14,44H30V25a1,1,0,0,1,.45-.83L42.7,16H28.3L14,25.54Z"/><path d="M13,32H1a1,1,0,0,1,0-2H13a1,1,0,0,1,0,2Z"/><path d="M13,36H1a1,1,0,0,1,0-2H13a1,1,0,0,1,0,2Z"/><path d="M13,40H1a1,1,0,0,1,0-2H13a1,1,0,0,1,0,2Z"/><path d="M13,44H1a1,1,0,0,1,0-2H13a1,1,0,0,1,0,2Z"/><path d="M44,28H31V26H43.7l12-8H43V16H59a1,1,0,0,1,.55,1.83l-15,10A1,1,0,0,1,44,28Z"/><path d="M13,28H1a1,1,0,0,1-.55-1.83l15-10A1,1,0,0,1,16,16h9v2H16.3l-12,8H13Z"/><path d="M22,42a1,1,0,0,1-1-1V39a1,1,0,0,1,2,0v2A1,1,0,0,1,22,42Z"/><path d="M22,28a1,1,0,0,1-1-1V25a1,1,0,0,1,2,0v2A1,1,0,0,1,22,28Z"/><path d="M22,40a4,4,0,0,1-4-4,1,1,0,0,1,2,0,2,2,0,1,0,2-2,4,4,0,1,1,4-4,1,1,0,0,1-2,0,2,2,0,1,0-2,2,4,4,0,0,1,0,8Z"/></svg>