<svg id="icons" xmlns="http://www.w3.org/2000/svg" viewBox="0 0 74 72.65"><defs><style>.cls-1{fill:#231f20;}</style></defs><title>check-box</title><path class="cls-1" d="M29.6,55.16a1.34,1.34,0,0,1-1-.39L12.5,38.62a1.35,1.35,0,1,1,1.9-1.9l15.1,15.1L71.61.49A1.35,1.35,0,1,1,73.69,2.2L30.64,54.67a1.35,1.35,0,0,1-1,.49Z"/><path class="cls-1" d="M63.24,72.65H1.35A1.35,1.35,0,0,1,0,71.31V9.42A1.35,1.35,0,0,1,1.35,8.07H45.45a1.35,1.35,0,1,1,0,2.69H2.69V70h59.2V34a1.35,1.35,0,0,1,2.69,0V71.31A1.35,1.35,0,0,1,63.24,72.65Z"/></svg>