<svg id="Layer_1" data-name="Layer 1" xmlns="http://www.w3.org/2000/svg" viewBox="0 0 60 60"><title>coffee</title><path d="M35,55H9a9,9,0,0,1-9-9V6A1,1,0,0,1,2,6V46a7,7,0,0,0,7,7H35a7,7,0,0,0,7-7V6a1,1,0,0,1,2,0V46A9,9,0,0,1,35,55Z"/><path d="M43,7H1A1,1,0,0,1,1,5H43a1,1,0,0,1,0,2Z"/><path d="M9,43a1,1,0,0,1-1-1V14a1,1,0,0,1,2,0V42A1,1,0,0,1,9,43Z"/><path d="M43,44a1,1,0,0,1,0-2,15,15,0,0,0,0-30,1,1,0,0,1,0-2,17,17,0,0,1,0,34Z"/><path d="M43,38a1,1,0,0,1,0-2,9,9,0,0,0,0-18,1,1,0,0,1,0-2,11,11,0,0,1,0,22Z"/></svg>