<svg id="Layer_1" data-name="Layer 1" xmlns="http://www.w3.org/2000/svg" viewBox="0 0 184.36 24"><defs><style>.cls-1{fill:#1e1e1e;}</style></defs><title>dt-logo</title><path class="cls-1" d="M18.76,18.62V5.38C18.76.82,19,0,16,0h-.67V13.21h0v5.26c0,3.18.08,5.93,6.48,5.24a15.11,15.11,0,0,0,2.1-.39s-1.06-.94-2.2-1.9C19.44,21.56,18.76,21.08,18.76,18.62Z"/><path class="cls-1" d="M27.23,15.15a18.41,18.41,0,0,0-2.69-1c-.48-.13-.63-.18-1.12-.27l-.81.35.73.18a19.58,19.58,0,0,1,2,.65c2.06.79,3.31,2,3.08,3s-2.18,2.15-5,2.93l2.25,1.62c3.23-1.1,5-2.57,5-4.23C30.67,17.23,29.22,16,27.23,15.15Z"/><path class="cls-1" d="M19.33,13.2A16.87,16.87,0,0,0,17,13l-.56.87a11.64,11.64,0,0,1,1.79-.06c.48,0,1,0,2.34.11l1.13-.41S20.58,13.34,19.33,13.2Z"/><path class="cls-1" d="M14.37,21.91l-1.58,0a26.61,26.61,0,0,1-3.55-.37C8.38,21.37,6.89,21,6.89,21c-2.79-.78-4.41-2.05-4.2-3.29.4-2.4,6.31-3.86,8.81-3.86l.31-.76C7.35,13.05,0,15,0,18.18a3,3,0,0,0,1,2.14H1c2.61,2.23,6.41,3,8.76,3.29a34.25,34.25,0,0,0,4.71.33h.81l-.86-2"/><path class="cls-1" d="M10.79,18.43c0,2.14,1.71,2.2,2.52,2.2h.89V3.94H13.3c-2.15,0-2.52.77-2.52,3.22Z"/><path class="cls-1" d="M38,13.48h4a6.13,6.13,0,0,1,2.22.39A5.27,5.27,0,0,1,46,15a4.84,4.84,0,0,1,1.13,1.63,5.14,5.14,0,0,1,.4,2v0a5.19,5.19,0,0,1-.4,2A4.81,4.81,0,0,1,46,22.33a5.35,5.35,0,0,1-1.74,1.09,6,6,0,0,1-2.22.4H38Zm4,8.29a3.51,3.51,0,0,0,1.27-.22,2.73,2.73,0,0,0,1-.64,3,3,0,0,0,.64-1,3.3,3.3,0,0,0,.23-1.26v0a3.37,3.37,0,0,0-.23-1.26,3,3,0,0,0-.64-1,2.82,2.82,0,0,0-1-.64,3.41,3.41,0,0,0-1.27-.23H40.3v6.24Z"/><path class="cls-1" d="M49.1,13.48h2.28V23.82H49.1Z"/><path class="cls-1" d="M58.35,24a5.89,5.89,0,0,1-2.21-.4,5.1,5.1,0,0,1-1.71-1.11,5,5,0,0,1-1.12-1.68,5.57,5.57,0,0,1-.4-2.13v0a5.29,5.29,0,0,1,3.25-4.93,5.48,5.48,0,0,1,2.17-.42,7.56,7.56,0,0,1,1.26.1,6,6,0,0,1,1.06.27,5,5,0,0,1,.92.44,6.83,6.83,0,0,1,.83.61L61,16.45a5.91,5.91,0,0,0-.59-.44,3.81,3.81,0,0,0-.61-.33,3.58,3.58,0,0,0-.69-.21,4.14,4.14,0,0,0-.81-.07,2.64,2.64,0,0,0-1.16.26,3.12,3.12,0,0,0-.95.7,3.18,3.18,0,0,0-.64,1,3.39,3.39,0,0,0-.23,1.25v0A3.64,3.64,0,0,0,55.52,20a3.12,3.12,0,0,0,.65,1,3,3,0,0,0,1,.69,3.17,3.17,0,0,0,1.26.24,3.59,3.59,0,0,0,2.14-.62V19.83H58.27v-2h4.49v4.49a7.55,7.55,0,0,1-1.9,1.16A6.24,6.24,0,0,1,58.35,24Z"/><path class="cls-1" d="M64.47,13.48h2.28V23.82H64.47Z"/><path class="cls-1" d="M71.15,15.58H68v-2.1h8.57v2.1H73.42v8.25H71.15Z"/><path class="cls-1" d="M81.27,13.4h2.1l4.43,10.42H85.43l-.95-2.32H80.1l-.95,2.32H76.84Zm2.39,6.09-1.37-3.36-1.37,3.36Z"/><path class="cls-1" d="M88.81,13.48h2.28v8.29h5.16v2.05H88.81Z"/><path class="cls-1" d="M103.62,15.58h-3.15v-2.1H109v2.1H105.9v8.25h-2.28Z"/><path class="cls-1" d="M110.2,13.48H118v2h-5.54v2.1h4.88v2h-4.88V21.8h5.62v2H110.2Z"/><path class="cls-1" d="M119.51,13.48h2.28v8.29h5.16v2.05h-7.43Z"/><path class="cls-1" d="M128.06,13.48h7.79v2h-5.54v2.1h4.88v2h-4.88V21.8h5.62v2h-7.86Z"/><path class="cls-1" d="M137.38,13.48h4.23a5,5,0,0,1,1.66.26,3.52,3.52,0,0,1,1.24.73,3.2,3.2,0,0,1,.78,1.13,3.76,3.76,0,0,1,.27,1.46v0a3.63,3.63,0,0,1-.33,1.58,3.23,3.23,0,0,1-.89,1.14,3.88,3.88,0,0,1-1.33.69,5.65,5.65,0,0,1-1.63.23h-1.73v3.1h-2.28Zm4.08,5.22a1.85,1.85,0,0,0,1.33-.45,1.48,1.48,0,0,0,.47-1.12v0a1.41,1.41,0,0,0-.5-1.17,2.09,2.09,0,0,0-1.35-.4h-1.76v3.16Z"/><path class="cls-1" d="M149.12,13.4h2.1l4.43,10.42h-2.38l-.95-2.32h-4.37L147,23.82h-2.32Zm2.4,6.09-1.37-3.36-1.38,3.36Z"/><path class="cls-1" d="M158,15.58h-3.15v-2.1h8.57v2.1h-3.15v8.25H158Z"/><path class="cls-1" d="M164.55,13.48h2.28v4.09H171V13.48h2.28V23.82H171V19.67h-4.2v4.15h-2.28Z"/><path class="cls-1" d="M178.11,19.74l-4-6.27h2.66l2.47,4.15,2.51-4.15h2.59l-4,6.22v4.12h-2.28Z"/></svg>