<svg id="Layer_1" data-name="Layer 1" xmlns="http://www.w3.org/2000/svg" viewBox="0 0 60 60"><defs><style>.cls-1{fill:#fff;}</style></defs><title>growth</title><path class="cls-1" d="M49,22c-5,0-9-3.51-9-8,0-3.3,2.57-7,6-7a4.4,4.4,0,0,1,4,4,1,1,0,0,1-2,0,2.47,2.47,0,0,0-2-2c-2.15,0-4,2.75-4,5,0,3.76,3.56,6,7,6a8.9,8.9,0,0,0,9-9,8.9,8.9,0,0,0-9-9H11a8.9,8.9,0,0,0-9,9,8.9,8.9,0,0,0,9,9c3.44,0,7-2.24,7-6,0-2.25-1.85-5-4-5a2.47,2.47,0,0,0-2,2,1,1,0,0,1-2,0,4.4,4.4,0,0,1,4-4c3.43,0,6,3.7,6,7,0,4.49-4,8-9,8A10.88,10.88,0,0,1,0,11,10.88,10.88,0,0,1,11,0H49A10.88,10.88,0,0,1,60,11,10.88,10.88,0,0,1,49,22Z"/><path class="cls-1" d="M25,60a1,1,0,0,1-1-1V19a1,1,0,0,1,2,0V59A1,1,0,0,1,25,60Z"/><path class="cls-1" d="M35,60a1,1,0,0,1-1-1V19a1,1,0,0,1,2,0V59A1,1,0,0,1,35,60Z"/><path class="cls-1" d="M43.35,20H16.65a1,1,0,0,1,0-2H43.35a1,1,0,0,1,0,2Z"/><path class="cls-1" d="M41.09,14H18.91a1,1,0,0,1,0-2H41.09a1,1,0,0,1,0,2Z"/><path class="cls-1" d="M16.65,60a1,1,0,0,1-1-1V19a1,1,0,1,1,2,0V59A1,1,0,0,1,16.65,60Z"/><path class="cls-1" d="M43.35,60a1,1,0,0,1-1-1V19a1,1,0,0,1,2,0V59A1,1,0,0,1,43.35,60Z"/></svg>