<svg id="Layer_1" data-name="Layer 1" xmlns="http://www.w3.org/2000/svg" viewBox="0 0 60 60"><defs><style>.cls-1{fill:#fff;}</style></defs><title>health</title><path class="cls-1" d="M37,60H23a1,1,0,0,1-1-1V43.83L8.49,51.43a1,1,0,0,1-1.36-.37l-7-12.12a1,1,0,0,1,.38-1.37L14,30,.51,22.43a1,1,0,0,1-.38-1.37l7-12.12a1,1,0,0,1,1.36-.37L22,16.17V1a1,1,0,0,1,1-1H37a1,1,0,0,1,1,1V16.17l13.51-7.6a1,1,0,0,1,1.36.37l7,12.13a1,1,0,0,1-.38,1.37L46,30l13.45,7.57a1,1,0,0,1,.38,1.37l-7,12.13a1,1,0,0,1-1.36.37L38,43.83V59A1,1,0,0,1,37,60ZM24,58H36V42.13a1,1,0,0,1,1.49-.87l14.14,8,6-10.39L43.51,30.87a1,1,0,0,1,0-1.74l14.12-7.94-6-10.39-14.14,8A1,1,0,0,1,36,17.88V2H24V17.88a1,1,0,0,1-1.49.87l-14.14-8-6,10.39,14.12,7.94a1,1,0,0,1,0,1.74L2.37,38.81l6,10.39,14.14-8a1,1,0,0,1,1.49.87Z"/></svg>