<svg id="Layer_1" data-name="Layer 1" xmlns="http://www.w3.org/2000/svg" viewBox="0 0 60 60"><defs><style>.cls-1{fill:#fff;}</style></defs><title>lunch</title><path class="cls-1" d="M39,60a1,1,0,0,1-1-1V1a1,1,0,0,1,1-1c5.15,0,9,20.59,9,39a1,1,0,0,1-1,1H40V59A1,1,0,0,1,39,60Zm1-22h6c-.12-19-3.7-31.95-6-35.2Z"/><path class="cls-1" d="M21,60a1,1,0,0,1-1-1V1a1,1,0,0,1,2,0V59A1,1,0,0,1,21,60Z"/><path class="cls-1" d="M21,24a9,9,0,0,1-9-9V1a1,1,0,0,1,2,0V15a7,7,0,0,0,14,0V1a1,1,0,0,1,2,0V15A9,9,0,0,1,21,24Z"/></svg>