<svg id="icons" xmlns="http://www.w3.org/2000/svg" viewBox="0 0 60 76.77"><defs><style>.cls-1{fill:#231f20;}</style></defs><title>mug-tools</title><path class="cls-1" d="M50,38.71H47.1V34.52a1,1,0,0,0-1-1H45.07l5-13.29a5.62,5.62,0,0,0,3.16-1.32c2.45-2.07,3.47-6.12,2.53-10.08A11.33,11.33,0,0,0,47.15.24a1,1,0,0,0-1,1.47c2.07,3.15.49,5.15-1.19,7.26a11.49,11.49,0,0,0-1.67,2.51,6.14,6.14,0,0,0-.11,4.85,5.89,5.89,0,0,0,1.57,2.14L36.77,32.88V1a1,1,0,0,0-1-1H20.32a1,1,0,0,0-1,1V33.55h-1L10.87,18.6l0-.06,0,0,0,0a1,1,0,0,0-.19-.19l-.07-.05,0,0L1.45,13A1,1,0,0,0,0,14L1.3,24.31v0a1,1,0,0,0,0,.11.94.94,0,0,0,.05.17l4.46,8.92h-1a1,1,0,0,0-1,1V69.36a7.34,7.34,0,0,0,7.42,7.42H39.68a7.26,7.26,0,0,0,7.42-7.42V58.71H50a9.67,9.67,0,0,0,10-10A9.67,9.67,0,0,0,50,38.71ZM45,12.23a10.28,10.28,0,0,1,1.4-2.06c1.43-1.8,3.29-4.14,2.35-7.31A9.35,9.35,0,0,1,53.92,9.3c.76,3.21,0,6.57-1.9,8.16a4.23,4.23,0,0,1-4.62.43,4.42,4.42,0,0,1-2.47-2.31A4.25,4.25,0,0,1,45,12.23Zm1.61,7.44a8.39,8.39,0,0,0,1.44.46L43,33.55H38.61l7.72-14ZM21.29,1.94H34.84V7.74H28.06a1,1,0,1,0,0,1.94h6.77V12.9H30.64a1,1,0,1,0,0,1.94h4.19v3.23H28.06a1,1,0,1,0,0,1.94h6.77v5.81H30.64a1,1,0,1,0,0,1.94h4.19v5.81H21.29ZM8.16,19.1,3,22.52l-.86-6.85ZM3.51,24.53l6.12-4.08,6.55,13.1H8ZM45.16,69.36a5.3,5.3,0,0,1-5.48,5.48H11.29a5.43,5.43,0,0,1-5.48-5.48V35.48H45.16ZM50,56.77H47.1V40.65H50a7.72,7.72,0,0,1,8.06,8.07A7.72,7.72,0,0,1,50,56.77Z"/></svg>