<svg id="icons" xmlns="http://www.w3.org/2000/svg" viewBox="0 0 46 46"><defs><style>.cls-1{fill:#fff;}</style></defs><title>pen</title><path class="cls-1" d="M44.85,6.15l-5-5a4,4,0,0,0-5.58,0L27.83,7.59,4.17,31.25a.79.79,0,0,0-.2.33L0,45a.79.79,0,0,0,1,1L14.42,42a.79.79,0,0,0,.33-.2L38.4,18.17l6.44-6.44A4,4,0,0,0,44.85,6.15Zm-7,10.35L29.5,8.15l2-2,8.35,8.35ZM11.5,33.38H6.73l-1-1.48L28.39,9.27,32,12.88ZM5,33.65l.64,1a.79.79,0,0,0,.66.35H11v4.73a.79.79,0,0,0,.35.66l1,.64L7.72,42.35,3.65,38.28ZM3.14,40,6,42.86,2,44Zm11,.25-1.48-1V34.5L33.12,14l3.62,3.62ZM43.73,10.61,41,13.34,32.65,5l2.73-2.73a2.43,2.43,0,0,1,3.35,0l5,5A2.37,2.37,0,0,1,43.73,10.61Z"/></svg>