<svg id="Layer_1" data-name="Layer 1" xmlns="http://www.w3.org/2000/svg" viewBox="0 0 60 60"><defs><style>.cls-1{fill:#231f20;}</style></defs><title>pto</title><path class="cls-1" d="M29,48.71A1,1,0,0,1,28.31,47c2.12-1.88,7.9-6.25,15.66-6.25H59a1,1,0,0,1,0,2H44c-7.08,0-12.39,4-14.34,5.75A1,1,0,0,1,29,48.71Z"/><path class="cls-1" d="M44,42.71a1,1,0,0,1-.93-.63l-8-20a1,1,0,0,1,1.86-.74l8,20A1,1,0,0,1,44,42.71Z"/><path class="cls-1" d="M29.21,6.16a1,1,0,0,1-.93-.63l-.93-2.34a1,1,0,0,1,1.86-.74l.93,2.34a1,1,0,0,1-.93,1.37Z"/><path class="cls-1" d="M13.44,31.4a1,1,0,0,1-.93-.63l-.93-2.34C8,19.45,15,9.73,28.84,4.23h0C35.19,1.71,41.49.76,46.55,1.56,52.19,2.46,56.14,5.38,58,10l.93,2.34a1,1,0,0,1-.56,1.3L52.49,16a1,1,0,0,1-.76,0l-2.36-1-1,2.35a1,1,0,0,1-.55.53L24.36,27.15a1,1,0,0,1-.76,0l-2.36-1-1,2.36a1,1,0,0,1-.55.53l-5.86,2.32A1,1,0,0,1,13.44,31.4ZM42.83,3.29a36.77,36.77,0,0,0-13.26,2.8h0C19,10.3,9.85,18.61,13.44,27.69L14,29.1l4.55-1.8L19.8,24.4a1,1,0,0,1,1.31-.52L24,25.13l22.67-9,1.25-2.89a1,1,0,0,1,1.31-.52L52.14,14l4.54-1.8-.56-1.42c-2-5-6.47-6.69-9.88-7.23A21.9,21.9,0,0,0,42.83,3.29ZM29.21,5.16h0Z"/><path class="cls-1" d="M59,58.71a5,5,0,0,1-4-2,5,5,0,0,1-8,0,5,5,0,0,1-8,0,5,5,0,0,1-8,0,5,5,0,0,1-8,0,5,5,0,0,1-8,0,5,5,0,0,1-8,0A5,5,0,0,1,.55,58.09a1,1,0,0,1,1-1.75A3,3,0,0,0,6,53.71a1,1,0,0,1,2,0,3,3,0,1,0,6,0,1,1,0,0,1,2,0,3,3,0,0,0,6,0,1,1,0,0,1,2,0,3,3,0,0,0,6,0,1,1,0,0,1,2,0,3,3,0,0,0,6,0,1,1,0,0,1,2,0,3,3,0,1,0,6,0,1,1,0,0,1,2,0,3,3,0,1,0,6,0,1,1,0,0,1,2,0,3,3,0,0,0,3,3,1,1,0,0,1,0,2Z"/></svg>