<svg id="Layer_1" data-name="Layer 1" xmlns="http://www.w3.org/2000/svg" viewBox="0 0 60 60"><defs><style>.cls-1{fill:#fff;}</style></defs><title>snacks</title><path class="cls-1" d="M33,22a1,1,0,0,1-1-1V1a1,1,0,0,1,2,0V21A1,1,0,0,1,33,22Z"/><path class="cls-1" d="M43,2H23a1,1,0,0,1,0-2H43a1,1,0,0,1,0,2Z"/><path class="cls-1" d="M33,22a1,1,0,0,1-.37-.07l-5-2a1,1,0,1,1,.74-1.86L33,19.92l4.63-1.85a1,1,0,1,1,.74,1.86l-5,2A1,1,0,0,1,33,22Z"/><path class="cls-1" d="M3,30a1,1,0,0,1-1-1A25,25,0,0,1,27,4a1,1,0,0,1,1,1A25,25,0,0,1,3,30ZM26,6A23,23,0,0,0,4,28,23,23,0,0,0,26,6Z"/><path class="cls-1" d="M33,60A25,25,0,0,1,9.1,27.65a1,1,0,0,1,1.91.59A23,23,0,1,0,26.23,13a1,1,0,1,1-.59-1.91A25,25,0,1,1,33,60Z"/></svg>