<svg id="Layer_1" data-name="Layer 1" xmlns="http://www.w3.org/2000/svg" viewBox="0 0 60 60"><title>travel</title><path d="M59,41H36.29a1,1,0,0,1,0-2H57.92c-.67-4.11-5.33-8-9.92-8H42.75a1,1,0,0,1,0-2H48c6.06,0,12,5.45,12,11A1,1,0,0,1,59,41Z"/><path d="M26,29H8a1,1,0,0,1-.71-.3l-5-5A1,1,0,0,1,2,23V20a1,1,0,0,1,1-1H29a1,1,0,0,1,1,1v5A4.39,4.39,0,0,1,26,29ZM8.42,27H26a2.47,2.47,0,0,0,2-2V21H4v1.54Z"/><path d="M29,43H1a1,1,0,0,1-1-1c0-7.85,6.67-15,14-15h6c6.91,0,12.35,6.74,13.35,13.29C38.55,38.49,42,33.44,42,27V13c0-1.53-.47-2-2-2H36a1,1,0,0,1,0-2h4c2.65,0,4,1.35,4,4V27C44,36.27,37.69,43,29,43ZM2,41H29a13.73,13.73,0,0,0,2.41-.21C30.61,35.12,25.85,29,20,29H14C8.14,29,2.58,34.7,2,41Z"/><path d="M49,24c-4.12,0-7-2.47-7-6s2.88-6,7-6a1,1,0,0,1,1,1V23A1,1,0,0,1,49,24Zm-1-9.94c-2.43.32-4,1.82-4,3.94s1.57,3.62,4,3.94Z"/><path d="M14,51a9,9,0,0,1-9-9,1,1,0,0,1,2,0,7,7,0,0,0,14,0,1,1,0,0,1,2,0A9,9,0,0,1,14,51Z"/><path d="M49,51a9,9,0,0,1-8.71-11.25,1,1,0,0,1,1.94.5,7,7,0,1,0,13.54,0,1,1,0,0,1,1.94-.5A9,9,0,0,1,49,51Z"/></svg>