<svg id="Layer_1" data-name="Layer 1" xmlns="http://www.w3.org/2000/svg" viewBox="0 0 60 60"><title>vision</title><path d="M16,54A11,11,0,1,1,27,43,11,11,0,0,1,16,54Zm0-20a9,9,0,1,0,9,9A9,9,0,0,0,16,34Z"/><path d="M44,54A11,11,0,1,1,55,43,11,11,0,0,1,44,54Zm0-20a9,9,0,1,0,9,9A9,9,0,0,0,44,34Z"/><path d="M34,44a1,1,0,0,1-1-1,3,3,0,0,0-6,0,1,1,0,0,1-2,0,5,5,0,0,1,10,0A1,1,0,0,1,34,44Z"/><path d="M6,44a1,1,0,0,1-1-1V11a5,5,0,0,1,5-5,1,1,0,0,1,0,2,3,3,0,0,0-3,3V43A1,1,0,0,1,6,44Z"/><path d="M54,44a1,1,0,0,1-1-1V11a3,3,0,0,0-3-3,1,1,0,0,1,0-2,5,5,0,0,1,5,5V43A1,1,0,0,1,54,44Z"/></svg>